HIERARCHY
ROOT newVegas:Hips
{
	OFFSET 0.000000 96.479958 0.000000
	CHANNELS 6 Xposition Yposition Zposition Xrotation Yrotation Zrotation
	JOINT newVegas:Pelvis
	{
		OFFSET 0.000000 0.000000 0.000000
		CHANNELS 3 Xrotation Yrotation Zrotation
		JOINT newVegas:LeftUpLeg
		{
			OFFSET 18.735201 -5.666702 -4.541200
			CHANNELS 3 Xrotation Yrotation Zrotation
			JOINT newVegas:LeftLeg
			{
				OFFSET -0.021200 -31.938179 0.493100
				CHANNELS 3 Xrotation Yrotation Zrotation
				JOINT newVegas:LeftFoot
				{
					OFFSET 0.021200 -31.938179 -4.336299
					CHANNELS 3 Xrotation Yrotation Zrotation
					JOINT newVegas:LeftToeBase
					{
						OFFSET 0.943001 -26.722000 15.023500
						CHANNELS 3 Xrotation Yrotation Zrotation
						End Site
						{
							OFFSET 0.000000 30.670183 0.000000
						}
					}
				}
				JOINT newVegas:Left_PantLeg
				{
					OFFSET 0.663870 -9.044666 -1.108900
					CHANNELS 3 Xrotation Yrotation Zrotation
					End Site
					{
						OFFSET 1.415995 20.635357 0.000000
					}
				}
			}
		}
		JOINT newVegas:RightUpLeg
		{
			OFFSET -18.735201 -5.666702 -4.541200
			CHANNELS 3 Xrotation Yrotation Zrotation
			JOINT newVegas:RightLeg
			{
				OFFSET 0.018946 -31.938133 0.493100
				CHANNELS 3 Xrotation Yrotation Zrotation
				JOINT newVegas:RightFoot
				{
					OFFSET -0.018946 -31.938126 -4.336299
					CHANNELS 3 Xrotation Yrotation Zrotation
					JOINT newVegas:RightToeBase
					{
						OFFSET -0.943001 -26.722004 15.023500
						CHANNELS 3 Xrotation Yrotation Zrotation
						End Site
						{
							OFFSET 0.000000 30.670187 0.000000
						}
					}
				}
				JOINT newVegas:Right_PantLeg
				{
					OFFSET -0.661674 -9.044716 -1.108900
					CHANNELS 3 Xrotation Yrotation Zrotation
					End Site
					{
						OFFSET -1.415958 20.635269 0.000000
					}
				}
			}
		}
	}
	JOINT newVegas:Spine
	{
		OFFSET 0.000000 10.199997 -0.299500
		CHANNELS 3 Xrotation Yrotation Zrotation
		JOINT newVegas:Spine1
		{
			OFFSET 0.000000 11.900002 -1.516600
			CHANNELS 3 Xrotation Yrotation Zrotation
			JOINT newVegas:Spine2
			{
				OFFSET 0.000000 13.600006 -2.842500
				CHANNELS 3 Xrotation Yrotation Zrotation
				JOINT newVegas:Neck
				{
					OFFSET 0.000000 9.624100 -2.890100
					CHANNELS 3 Xrotation Yrotation Zrotation
					JOINT newVegas:Head
					{
						OFFSET 0.000000 14.068802 -1.351900
						CHANNELS 3 Xrotation Yrotation Zrotation
						JOINT newVegas:Hair_Back
						{
							OFFSET 0.000000 3.231903 -17.524799
							CHANNELS 3 Xrotation Yrotation Zrotation
							End Site
							{
								OFFSET 0.000000 19.849884 0.000000
							}
						}
						JOINT newVegas:Hair_Front
						{
							OFFSET 0.000000 31.260406 4.573800
							CHANNELS 3 Xrotation Yrotation Zrotation
							JOINT newVegas:Hair_Front1
							{
								OFFSET 0.000000 2.284103 11.993300
								CHANNELS 3 Xrotation Yrotation Zrotation
								JOINT newVegas:Hair_Front2
								{
									OFFSET 0.000000 2.284103 11.993300
									CHANNELS 3 Xrotation Yrotation Zrotation
									End Site
									{
										OFFSET 0.000000 12.208862 0.000000
									}
								}
							}
						}
						JOINT newVegas:Jowel
						{
							OFFSET 0.000000 -7.458206 6.864100
							CHANNELS 3 Xrotation Yrotation Zrotation
							End Site
							{
								OFFSET 0.000000 19.849884 0.000000
							}
						}
					}
				}
				JOINT newVegas:LeftShoulder
				{
					OFFSET 15.263000 10.923401 -0.547700
					CHANNELS 3 Xrotation Yrotation Zrotation
					JOINT newVegas:LeftArm
					{
						OFFSET 25.438599 -2.830597 -13.032500
						CHANNELS 3 Xrotation Yrotation Zrotation
						JOINT newVegas:LeftForeArm
						{
							OFFSET 29.960503 0.000000 0.000000
							CHANNELS 3 Xrotation Yrotation Zrotation
							JOINT newVegas:LeftHand
							{
								OFFSET 27.849251 0.000000 0.000000
								CHANNELS 3 Xrotation Yrotation Zrotation
								JOINT newVegas:LeftHandThumb1
								{
									OFFSET 4.487587 -3.305161 6.305391
									CHANNELS 3 Xrotation Yrotation Zrotation
									JOINT newVegas:LeftHandThumb2
									{
										OFFSET 5.480453 -3.164139 3.164143
										CHANNELS 3 Xrotation Yrotation Zrotation
										JOINT newVegas:LeftHandThumb3
										{
											OFFSET 5.159721 -2.978973 2.978967
											CHANNELS 3 Xrotation Yrotation Zrotation
											End Site
											{
												OFFSET 2.494507 5.926697 1.738678
											}
										}
									}
								}
								JOINT newVegas:LeftHandIndex1
								{
									OFFSET 18.578728 -0.527832 5.208049
									CHANNELS 3 Xrotation Yrotation Zrotation
									JOINT newVegas:LeftHandIndex2
									{
										OFFSET 3.192009 0.000000 0.000000
										CHANNELS 3 Xrotation Yrotation Zrotation
										JOINT newVegas:LeftHandIndex3
										{
											OFFSET 3.835129 0.000000 0.000000
											CHANNELS 3 Xrotation Yrotation Zrotation
											End Site
											{
												OFFSET -0.034599 3.816971 0.371180
											}
										}
									}
								}
								JOINT newVegas:LeftHandMiddle1
								{
									OFFSET 18.476105 0.000000 0.000000
									CHANNELS 3 Xrotation Yrotation Zrotation
									JOINT newVegas:LeftHandMiddle2
									{
										OFFSET 3.324875 0.000000 0.000000
										CHANNELS 3 Xrotation Yrotation Zrotation
										JOINT newVegas:LeftHandMiddle3
										{
											OFFSET 4.596550 0.000000 0.000000
											CHANNELS 3 Xrotation Yrotation Zrotation
											End Site
											{
												OFFSET 0.057701 4.578827 0.399218
											}
										}
									}
								}
								JOINT newVegas:LeftHandRing1
								{
									OFFSET 17.732719 0.121887 -4.201567
									CHANNELS 3 Xrotation Yrotation Zrotation
									JOINT newVegas:LeftHandRing2
									{
										OFFSET 2.733170 0.000000 0.000000
										CHANNELS 3 Xrotation Yrotation Zrotation
										JOINT newVegas:LeftHandRing3
										{
											OFFSET 3.178268 0.000000 0.000000
											CHANNELS 3 Xrotation Yrotation Zrotation
											End Site
											{
												OFFSET 0.119102 3.170624 0.185394
											}
										}
									}
								}
								JOINT newVegas:LeftHandPinky1
								{
									OFFSET 15.989624 -0.606689 -7.535461
									CHANNELS 3 Xrotation Yrotation Zrotation
									JOINT newVegas:LeftHandPinky2
									{
										OFFSET 2.538986 0.000000 0.000000
										CHANNELS 3 Xrotation Yrotation Zrotation
										JOINT newVegas:LeftHandPinky3
										{
											OFFSET 2.593102 0.000000 0.000000
											CHANNELS 3 Xrotation Yrotation Zrotation
											End Site
											{
												OFFSET -0.150902 2.584198 0.152708
											}
										}
									}
								}
							}
							JOINT newVegas:Left_Sleeve
							{
								OFFSET 0.267448 -0.649796 0.577675
								CHANNELS 3 Xrotation Yrotation Zrotation
								End Site
								{
									OFFSET 0.000000 15.991241 0.000000
								}
							}
							JOINT newVegas:Left_CapeC
							{
								OFFSET 15.715958 -8.608795 -6.935905
								CHANNELS 3 Xrotation Yrotation Zrotation
								JOINT newVegas:Left_CapeC1
								{
									OFFSET 0.000000 -8.688499 0.000000
									CHANNELS 3 Xrotation Yrotation Zrotation
									End Site
									{
										OFFSET 0.000000 8.688499 0.000000
									}
								}
							}
						}
						JOINT newVegas:Left_CapeB
						{
							OFFSET 26.118385 -8.608795 -7.079235
							CHANNELS 3 Xrotation Yrotation Zrotation
							JOINT newVegas:Left_CapeB1
							{
								OFFSET 0.000000 -8.688499 0.000000
								CHANNELS 3 Xrotation Yrotation Zrotation
								End Site
								{
									OFFSET 0.000000 8.688499 0.000000
								}
							}
						}
						JOINT newVegas:Left_CapeA
						{
							OFFSET 5.115639 -8.608795 -10.395809
							CHANNELS 3 Xrotation Yrotation Zrotation
							JOINT newVegas:Left_CapeA1
							{
								OFFSET 0.000000 -8.688499 0.000000
								CHANNELS 3 Xrotation Yrotation Zrotation
								End Site
								{
									OFFSET 0.000000 8.688499 0.000000
								}
							}
						}
					}
				}
				JOINT newVegas:RightShoulder
				{
					OFFSET -15.263000 10.923401 -0.547700
					CHANNELS 3 Xrotation Yrotation Zrotation
					JOINT newVegas:RightArm
					{
						OFFSET -25.438599 -2.830597 -13.032500
						CHANNELS 3 Xrotation Yrotation Zrotation
						JOINT newVegas:RightForeArm
						{
							OFFSET -29.960503 0.000000 0.000000
							CHANNELS 3 Xrotation Yrotation Zrotation
							JOINT newVegas:RightHand
							{
								OFFSET -27.849251 0.000000 0.000000
								CHANNELS 3 Xrotation Yrotation Zrotation
								JOINT newVegas:RightHandThumb1
								{
									OFFSET -4.487587 -3.305161 6.305391
									CHANNELS 3 Xrotation Yrotation Zrotation
									JOINT newVegas:RightHandThumb2
									{
										OFFSET -5.480453 -3.164139 3.164143
										CHANNELS 3 Xrotation Yrotation Zrotation
										JOINT newVegas:RightHandThumb3
										{
											OFFSET -5.159721 -2.978973 2.978967
											CHANNELS 3 Xrotation Yrotation Zrotation
											End Site
											{
												OFFSET -2.494507 5.926697 1.738678
											}
										}
									}
								}
								JOINT newVegas:RightHandIndex1
								{
									OFFSET -18.578728 -0.527832 5.208049
									CHANNELS 3 Xrotation Yrotation Zrotation
									JOINT newVegas:RightHandIndex2
									{
										OFFSET -3.192009 0.000000 0.000000
										CHANNELS 3 Xrotation Yrotation Zrotation
										JOINT newVegas:RightHandIndex3
										{
											OFFSET -3.835129 0.000000 0.000000
											CHANNELS 3 Xrotation Yrotation Zrotation
											End Site
											{
												OFFSET 0.034599 3.816971 0.371180
											}
										}
									}
								}
								JOINT newVegas:RightHandMiddle1
								{
									OFFSET -18.476105 0.000000 0.000000
									CHANNELS 3 Xrotation Yrotation Zrotation
									JOINT newVegas:RightHandMiddle2
									{
										OFFSET -3.324875 0.000000 0.000000
										CHANNELS 3 Xrotation Yrotation Zrotation
										JOINT newVegas:RightHandMiddle3
										{
											OFFSET -4.596550 0.000000 0.000000
											CHANNELS 3 Xrotation Yrotation Zrotation
											End Site
											{
												OFFSET -0.057701 4.578827 0.399218
											}
										}
									}
								}
								JOINT newVegas:RightHandRing1
								{
									OFFSET -17.732719 0.121887 -4.201567
									CHANNELS 3 Xrotation Yrotation Zrotation
									JOINT newVegas:RightHandRing2
									{
										OFFSET -2.733170 0.000000 0.000000
										CHANNELS 3 Xrotation Yrotation Zrotation
										JOINT newVegas:RightHandRing3
										{
											OFFSET -3.178268 0.000000 0.000000
											CHANNELS 3 Xrotation Yrotation Zrotation
											End Site
											{
												OFFSET -0.119102 3.170624 0.185394
											}
										}
									}
								}
								JOINT newVegas:RightHandPinky1
								{
									OFFSET -15.989624 -0.606689 -7.535461
									CHANNELS 3 Xrotation Yrotation Zrotation
									JOINT newVegas:RightHandPinky2
									{
										OFFSET -2.538986 0.000000 0.000000
										CHANNELS 3 Xrotation Yrotation Zrotation
										JOINT newVegas:RightHandPinky3
										{
											OFFSET -2.593102 0.000000 0.000000
											CHANNELS 3 Xrotation Yrotation Zrotation
											End Site
											{
												OFFSET 0.150902 2.584198 0.152708
											}
										}
									}
								}
							}
							JOINT newVegas:Right_CapeC
							{
								OFFSET -15.715958 -8.608795 -6.935905
								CHANNELS 3 Xrotation Yrotation Zrotation
								JOINT newVegas:Right_CapeC1
								{
									OFFSET 0.000000 -8.688499 0.000000
									CHANNELS 3 Xrotation Yrotation Zrotation
									End Site
									{
										OFFSET 0.000000 8.688499 0.000000
									}
								}
							}
							JOINT newVegas:Right_Sleeve
							{
								OFFSET -0.267448 -0.649994 0.577675
								CHANNELS 3 Xrotation Yrotation Zrotation
								End Site
								{
									OFFSET 0.000000 15.991302 0.000000
								}
							}
						}
						JOINT newVegas:Right_CapeA
						{
							OFFSET -5.115540 -8.608795 -10.395824
							CHANNELS 3 Xrotation Yrotation Zrotation
							JOINT newVegas:Right_CapeA1
							{
								OFFSET 0.000000 -8.688499 0.000000
								CHANNELS 3 Xrotation Yrotation Zrotation
								End Site
								{
									OFFSET 0.000000 8.688499 0.000000
								}
							}
						}
						JOINT newVegas:Right_CapeB
						{
							OFFSET -26.118187 -8.608795 -7.079266
							CHANNELS 3 Xrotation Yrotation Zrotation
							JOINT newVegas:Right_CapeB1
							{
								OFFSET 0.000000 -8.688499 0.000000
								CHANNELS 3 Xrotation Yrotation Zrotation
								End Site
								{
									OFFSET 0.000000 8.688499 0.000000
								}
							}
						}
					}
				}
				JOINT newVegas:Left_Collar
				{
					OFFSET 18.625099 8.655502 8.828100
					CHANNELS 3 Xrotation Yrotation Zrotation
					JOINT newVegas:Left_Collar1
					{
						OFFSET 14.783401 10.540405 -1.259500
						CHANNELS 3 Xrotation Yrotation Zrotation
						End Site
						{
							OFFSET 0.000000 18.199875 0.000000
						}
					}
				}
				JOINT newVegas:Collar_Back
				{
					OFFSET 0.000000 15.630707 -20.132601
					CHANNELS 3 Xrotation Yrotation Zrotation
					End Site
					{
						OFFSET 0.000000 22.523010 0.000000
					}
				}
				JOINT newVegas:Left_Peck
				{
					OFFSET 17.239599 -5.132599 25.482599
					CHANNELS 3 Xrotation Yrotation Zrotation
					End Site
					{
						OFFSET 0.000000 22.523010 0.000000
					}
				}
				JOINT newVegas:Right_Peck
				{
					OFFSET -17.239599 -5.132202 25.482599
					CHANNELS 3 Xrotation Yrotation Zrotation
					End Site
					{
						OFFSET 0.000000 22.523010 0.000000
					}
				}
				JOINT newVegas:Right_Collar
				{
					OFFSET -18.625099 8.655792 8.828100
					CHANNELS 3 Xrotation Yrotation Zrotation
					JOINT newVegas:Right_Collar1
					{
						OFFSET -14.783401 10.539993 -1.259500
						CHANNELS 3 Xrotation Yrotation Zrotation
						End Site
						{
							OFFSET 0.000000 18.199631 0.000000
						}
					}
				}
			}
		}
		JOINT newVegas:Belly
		{
			OFFSET 0.000000 -6.540398 9.014299
			CHANNELS 3 Xrotation Yrotation Zrotation
			End Site
			{
				OFFSET 0.000000 11.566666 0.000000
			}
		}
	}
	JOINT newVegas:ElvisFacialAnim_Joint
	{
		OFFSET 1.000000 -95.330101 -8.825800
		CHANNELS 3 Xrotation Yrotation Zrotation
		End Site
		{
			OFFSET 0.000000 35.315800 0.000000
		}
	}
}
MOTION
Frames: 4
Frame Time: 0.016667
0.762257 95.253525 4.341942 -4.056679 6.146967 -1.685509 -0.000000 0.000000 -0.000000 -6.312014 9.856977 12.843582 17.335806 -7.008987 0.228861 -8.257300 1.149034 -8.069708 -0.000000 -0.000000 -0.000000 0.000002 -0.000000 0.000000 -3.362509 -5.894880 0.951257 12.479165 3.447876 -0.564725 -4.920988 -0.034566 0.670872 0.000000 0.000000 -0.000000 0.000000 -0.000000 0.000000 4.902933 -0.340364 1.141226 5.814413 -0.121248 1.891503 -4.300226 -0.608020 -1.115062 0.268319 -0.226365 0.191249 0.268318 -0.226365 0.191251 -0.000000 0.000000 -0.000000 0.268224 -0.226348 0.191246 0.268394 -0.226393 0.191255 0.000000 -0.000000 -0.000000 -0.000000 0.000000 0.000000 1.687379 -7.781275 -3.495010 -0.671930 -2.004020 -76.954225 6.346059 -10.905880 1.751779 -0.215896 -0.743849 3.407703 -3.786633 8.458015 12.355378 7.478449 11.594939 -1.281173 -0.000000 -0.000000 -0.000003 2.378694 3.620431 -6.815234 0.000190 0.249696 -17.103513 -0.000000 -0.000001 0.000000 -1.935722 5.644663 -11.386958 0.106895 0.707430 -24.767383 -0.000001 0.000000 -0.000002 -4.873092 10.020050 -7.875482 -0.020636 0.335911 -30.084733 0.000001 -0.000001 -0.000001 -6.437474 11.282576 -19.770917 0.037272 0.251318 -30.842136 0.000001 -0.000005 -0.000002 0.000001 0.000001 0.000001 0.000001 0.000001 0.000001 0.000001 0.000001 0.000001 -0.000000 0.000000 0.000000 -0.000000 0.000001 -0.000001 -0.000000 0.000000 0.000000 0.000000 -0.000000 0.000000 2.088909 10.213785 4.097141 1.436097 3.709011 75.271806 15.720266 15.338542 -4.555621 -4.674560 -0.553299 -0.689854 -0.464237 -8.992509 -6.084870 7.449371 -11.614440 1.291256 0.000003 -0.000000 -0.000000 2.362061 -3.634250 8.333119 0.014207 -0.252977 18.622468 0.000004 0.000001 0.000000 -1.983679 -5.671325 13.530173 0.119621 -0.656147 26.914133 -0.000005 -0.000000 -0.000000 -4.977997 -10.100876 10.695778 -0.012087 -0.340800 32.924066 0.000002 0.000001 0.000001 -6.474137 -11.323135 23.226070 0.055851 -0.250355 34.317855 0.000001 0.000003 0.000001 -0.000000 -0.000001 0.000000 -0.000000 -0.000001 -0.000000 -0.000000 -0.000000 -0.000000 0.000003 0.000000 -0.000001 0.000003 0.000000 0.000000 0.000003 0.000000 -0.000001 0.000003 -0.000000 0.000000 0.000000 0.000000 -0.000000 0.000000 0.000000 -0.000000 0.000000 0.000000 -0.000000 0.000000 0.000000 -0.000000 0.000000 0.000000 -0.000000 0.000000 0.000000 -0.000000 0.000000 0.000000 -0.000000 0.000000 -0.000000 0.000000 -0.000000 0.000000 -0.000000 
0.744483 95.243027 4.376356 -4.045861 5.934497 -1.712506 -0.000000 0.000000 -0.000000 -6.233074 9.956725 12.908041 17.363207 -6.908092 0.186855 -8.369197 1.157328 -8.082323 0.000000 -0.000000 -0.000000 0.000000 -0.000000 0.000001 -3.448041 -5.929605 0.932212 12.557686 3.696267 -0.491889 -4.923201 -0.029777 0.594389 0.000000 0.000000 -0.000000 0.000000 0.000000 -0.000000 5.235925 -0.313861 1.103091 5.633655 -0.121060 1.918716 -4.352965 -0.591955 -1.049514 0.274092 -0.219904 0.184219 0.274094 -0.219906 0.184219 -0.000000 -0.000000 -0.000000 0.274096 -0.219904 0.184220 0.274163 -0.219907 0.184220 0.000000 0.000000 -0.000000 -0.000000 -0.000000 -0.000000 1.651270 -7.731092 -3.681486 -0.695462 -2.100493 -76.810969 6.241784 -10.917060 1.584200 -0.232981 -0.585448 3.802328 -3.785237 8.454650 12.355324 7.482384 11.596690 -1.286026 0.000000 -0.000001 -0.000001 2.379205 3.629044 -6.788393 0.000127 0.249693 -17.091015 0.000001 0.000000 0.000000 -1.939386 5.657826 -11.364479 0.106888 0.707405 -24.761669 0.000001 -0.000001 -0.000001 -4.878413 10.039911 -7.848569 -0.020611 0.335910 -30.084736 0.000001 -0.000002 -0.000002 -6.440628 11.305777 -19.752719 0.037300 0.251339 -30.842105 0.000001 -0.000003 0.000001 0.000000 -0.000000 0.000001 0.000000 -0.000000 0.000001 0.000000 -0.000000 0.000001 0.000000 0.000000 -0.000001 0.000001 0.000000 -0.000000 0.000000 0.000000 -0.000001 0.000001 0.000000 -0.000001 2.064653 10.089339 4.140847 1.630637 4.074591 75.042107 15.586951 15.435707 -4.453121 -5.016231 -0.489169 -0.883002 -0.464706 -9.050177 -6.077190 7.438696 -11.615228 1.273106 -0.000001 -0.000001 0.000001 2.380991 -3.625725 8.514074 0.014267 -0.253020 18.699436 -0.000005 -0.000001 -0.000000 -1.956549 -5.652396 13.660317 0.119705 -0.656244 26.931501 0.000002 0.000000 -0.000000 -4.927671 -10.055872 10.840794 -0.012107 -0.340695 32.907773 -0.000002 -0.000001 -0.000000 -6.435791 -11.256306 23.302848 0.055754 -0.250256 34.290217 -0.000001 0.000003 -0.000001 -0.000002 0.000000 -0.000001 -0.000002 -0.000001 -0.000001 -0.000002 0.000001 -0.000002 0.000001 -0.000001 -0.000002 0.000001 0.000000 -0.000001 0.000001 -0.000001 -0.000002 0.000001 -0.000000 -0.000002 0.000000 0.000000 -0.000000 0.000000 0.000000 -0.000000 0.000000 0.000000 -0.000000 0.000000 0.000000 -0.000000 0.000000 0.000000 -0.000000 0.000000 0.000000 -0.000000 0.000000 0.000000 -0.000000 0.000000 -0.000000 -0.000000 -0.000000 0.000000 -0.000000 
0.727993 95.223404 4.413245 -3.952039 5.749103 -1.744145 0.000000 -0.000000 0.000000 -6.260595 9.987240 12.942709 17.425658 -6.767522 0.178357 -8.479962 1.168013 -8.112751 -0.000000 -0.000001 0.000000 0.000001 -0.000001 -0.000000 -3.650161 -5.916556 0.933417 12.675438 3.942571 -0.459782 -4.931219 -0.025562 0.539594 0.000000 -0.000000 -0.000000 0.000000 -0.000000 -0.000000 5.415378 -0.319450 1.121624 5.522214 -0.132479 1.904806 -4.333486 -0.594682 -1.023816 0.248128 -0.210094 0.188682 0.248098 -0.210095 0.188680 0.000000 0.000000 -0.000000 0.248142 -0.210100 0.188684 0.248207 -0.210089 0.188681 -0.000000 0.000000 -0.000000 0.000000 0.000000 -0.000000 1.620308 -7.552169 -3.860862 -0.751190 -2.300622 -76.607142 6.273866 -11.004189 1.438891 -0.243637 -0.478228 4.018975 -3.781373 8.444593 12.355069 7.491350 11.602865 -1.294921 0.000001 -0.000002 -0.000003 2.378280 3.651472 -6.736809 0.000124 0.249661 -17.072101 -0.000000 0.000001 0.000001 -1.949735 5.684354 -11.316848 0.106866 0.707393 -24.756632 -0.000001 -0.000000 0.000003 -4.898095 10.077524 -7.782040 -0.020648 0.335925 -30.084716 0.000001 -0.000001 -0.000001 -6.457032 11.350221 -19.703769 0.037302 0.251326 -30.842149 -0.000002 -0.000002 -0.000001 -0.000000 0.000000 -0.000001 -0.000000 0.000000 -0.000001 -0.000000 0.000000 -0.000001 0.000000 0.000000 0.000001 0.000001 0.000000 0.000001 0.000000 0.000000 0.000001 0.000001 -0.000000 0.000001 1.990163 10.065641 4.383188 2.016828 4.166791 74.641919 15.644907 15.971457 -4.499026 -5.149048 -0.647296 -1.037979 -0.465256 -9.107752 -6.069193 7.427790 -11.616022 1.254590 0.000002 -0.000001 0.000001 2.399812 -3.617041 8.697705 0.014332 -0.253098 18.778299 -0.000003 -0.000000 -0.000002 -1.929485 -5.635143 13.790707 0.119799 -0.656292 26.948928 0.000001 0.000001 -0.000001 -4.877841 -10.011684 10.983910 -0.012120 -0.340587 32.890049 -0.000000 0.000002 0.000003 -6.398391 -11.189237 23.375003 0.055650 -0.250128 34.259484 -0.000000 -0.000000 -0.000000 -0.000002 0.000001 -0.000000 -0.000002 0.000001 0.000000 -0.000002 0.000002 -0.000000 0.000000 0.000000 -0.000001 0.000000 0.000000 -0.000001 0.000000 0.000000 -0.000001 0.000000 -0.000000 -0.000001 -0.000000 -0.000001 0.000000 -0.000000 -0.000001 0.000000 -0.000000 -0.000001 0.000000 -0.000000 -0.000001 0.000000 -0.000000 -0.000001 0.000000 -0.000000 -0.000001 0.000000 -0.000000 -0.000001 0.000000 -0.000000 0.000000 -0.000000 0.000000 -0.000000 0.000000 
0.691166 95.202438 4.451697 -3.896254 5.547565 -1.785998 0.000000 -0.000000 -0.000000 -6.272700 10.069283 13.039523 17.517615 -6.682313 0.142471 -8.613795 1.179833 -8.141780 -0.000000 0.000000 -0.000000 0.000000 0.000001 0.000000 -3.780765 -5.894320 0.958826 12.781540 4.079750 -0.403180 -4.959181 -0.022125 0.462175 0.000000 0.000000 -0.000000 -0.000000 -0.000000 0.000000 5.796132 -0.326685 1.057806 5.242577 -0.156766 1.980717 -4.477640 -0.616532 -0.907269 0.312796 -0.192223 0.168823 0.312830 -0.192221 0.168825 0.000000 0.000000 -0.000000 0.312785 -0.192220 0.168822 0.312787 -0.192228 0.168824 -0.000001 0.000000 -0.000000 0.000000 0.000000 -0.000000 1.575139 -7.497787 -4.111632 -0.649927 -2.291438 -76.423246 6.332385 -11.136892 1.329738 -0.228591 -0.569910 4.292990 -3.777143 8.428109 12.358900 7.504804 11.613069 -1.307478 0.000002 -0.000001 -0.000004 2.372267 3.686788 -6.663253 0.000113 0.249631 -17.048070 -0.000002 -0.000000 -0.000001 -1.965975 5.722489 -11.247133 0.106863 0.707371 -24.752407 -0.000001 -0.000001 0.000002 -4.930787 10.130582 -7.680388 -0.020614 0.335933 -30.088298 -0.000000 -0.000001 0.000001 -6.485181 11.413303 -19.627467 0.037290 0.251314 -30.842112 0.000000 -0.000003 -0.000002 -0.000000 0.000000 0.000000 -0.000000 0.000000 0.000000 -0.000000 0.000000 0.000000 0.000000 0.000000 0.000000 0.000001 0.000000 0.000000 0.000000 0.000000 0.000000 0.000001 -0.000000 0.000000 1.992627 10.037300 4.259008 2.129313 4.477113 74.585748 15.564225 15.783218 -4.347646 -5.452082 -0.363440 -1.427775 -0.465833 -9.165429 -6.061401 7.416884 -11.616827 1.235993 -0.000001 -0.000000 -0.000000 2.418924 -3.608141 8.883890 0.014413 -0.253163 18.859047 0.000001 0.000000 0.000001 -1.902488 -5.619335 13.921290 0.119922 -0.656337 26.966562 -0.000002 -0.000002 -0.000001 -4.828682 -9.968019 11.124721 -0.012133 -0.340468 32.871443 0.000001 0.000001 -0.000003 -6.362051 -11.121749 23.442855 0.055554 -0.249989 34.225900 -0.000003 0.000002 -0.000001 0.000001 0.000000 -0.000000 0.000001 -0.000000 -0.000000 0.000001 0.000000 -0.000000 0.000001 0.000000 -0.000000 0.000001 0.000000 -0.000000 0.000001 0.000000 -0.000000 0.000001 -0.000000 -0.000000 -0.000000 -0.000000 0.000000 -0.000000 -0.000000 0.000000 -0.000000 -0.000000 0.000000 -0.000000 -0.000000 0.000000 -0.000000 -0.000000 0.000000 -0.000000 -0.000000 0.000000 -0.000000 -0.000000 0.000000 0.000000 0.000000 -0.000000 0.000000 -0.000000 -0.000000 
